<svg xmlns="http://www.w3.org/2000/svg" width="1190" height="260" viewBox="0 0 1190 260"><rect width="100%" height="100%" fill="#101827"/><text x="30" y="38" fill="#fff" font-size="24" font-family="Arial">TallerMeco — Architecture</text><defs><marker id="a" markerWidth="8" markerHeight="8" refX="7" refY="4" orient="auto"><path d="M0,0 L8,4 L0,8 z" fill="#94a3b8"/></marker></defs><rect x="25" y="105" width="140" height="70" rx="14" fill="#1e3a5f" stroke="#38bdf8" stroke-width="2"/><text x="95" y="137" text-anchor="middle" fill="#fff" font-size="13" font-family="Arial">Vue View + Facade</text><path d="M165 140 H190" stroke="#94a3b8" stroke-width="3" marker-end="url(#a)"/><rect x="195" y="105" width="140" height="70" rx="14" fill="#1e3a5f" stroke="#38bdf8" stroke-width="2"/><text x="265" y="137" text-anchor="middle" fill="#fff" font-size="13" font-family="Arial">Customer API</text><path d="M335 140 H360" stroke="#94a3b8" stroke-width="3" marker-end="url(#a)"/><rect x="365" y="105" width="140" height="70" rx="14" fill="#1e3a5f" stroke="#38bdf8" stroke-width="2"/><text x="435" y="137" text-anchor="middle" fill="#fff" font-size="13" font-family="Arial">CustomerService</text><path d="M505 140 H530" stroke="#94a3b8" stroke-width="3" marker-end="url(#a)"/><rect x="535" y="105" width="140" height="70" rx="14" fill="#1e3a5f" stroke="#38bdf8" stroke-width="2"/><text x="605" y="137" text-anchor="middle" fill="#fff" font-size="13" font-family="Arial">CustomerRepository</text><path d="M675 140 H700" stroke="#94a3b8" stroke-width="3" marker-end="url(#a)"/><rect x="705" y="105" width="140" height="70" rx="14" fill="#1e3a5f" stroke="#38bdf8" stroke-width="2"/><text x="775" y="137" text-anchor="middle" fill="#fff" font-size="13" font-family="Arial">JdbcTemplate</text><path d="M845 140 H870" stroke="#94a3b8" stroke-width="3" marker-end="url(#a)"/><rect x="875" y="105" width="140" height="70" rx="14" fill="#1e3a5f" stroke="#38bdf8" stroke-width="2"/><text x="945" y="137" text-anchor="middle" fill="#fff" font-size="13" font-family="Arial">MariaDB</text><path d="M1015 140 H1040" stroke="#94a3b8" stroke-width="3" marker-end="url(#a)"/><rect x="1045" y="105" width="140" height="70" rx="14" fill="#1e3a5f" stroke="#38bdf8" stroke-width="2"/><text x="1115" y="137" text-anchor="middle" fill="#fff" font-size="13" font-family="Arial">Spring Security</text></svg>